<?xml version="1.0" encoding="utf-8"?>
<!-- Generator: Adobe Illustrator 23.0.6, SVG Export Plug-In . SVG Version: 6.00 Build 0)  -->
<svg version="1.1" id="Warstwa_1" xmlns="http://www.w3.org/2000/svg" xmlns:xlink="http://www.w3.org/1999/xlink" x="0px" y="0px"
	 viewBox="0 0 256 256" style="enable-background:new 0 0 256 256;" xml:space="preserve">
<style type="text/css">
	.st0{fill:#E90A0A;}
	.st1{fill:#FF8600;}
	.st2{fill:#AE0000;}
	.st3{fill:#008520;}
	.st4{fill:#0065B1;}
	.st5{fill:#FFFFFF;}
	.st6{fill:none;stroke:#001B29;stroke-width:0.4;stroke-miterlimit:10;}
	.st7{fill:#001B29;}
	.st8{fill:none;stroke:#001B29;stroke-width:0.2;stroke-miterlimit:10;}
</style>
<title>corpo_warning_man_laptop</title>
<polygon class="st0" points="109.2,13.5 109.2,185.4 152.5,183.9 152.5,13.5 "/>
<polygon class="st0" points="28.7,190.7 72.2,196.5 152.5,183.9 109.1,178.1 "/>
<polygon class="st1" points="152.5,154.9 152.5,183.9 72.1,196.5 98.7,200.2 179.4,187.6 179.4,154.9 "/>
<polygon class="st2" points="176.8,87.4 176.8,187.1 193.3,189.1 193.3,87.4 "/>
<polygon class="st2" points="102.7,198.2 102.7,222.8 123.7,226.5 123.7,203.4 193.6,189.1 178.2,187 "/>
<polygon class="st3" points="229.5,194 211.6,191.8 143.9,206.2 165.7,209.2 "/>
<polygon class="st4" points="143.9,224.3 143.9,206.2 123.7,203.4 123.7,221.4 "/>
<polygon class="st4" points="193.3,178.1 193.3,189.1 123.7,203.4 143.9,206.2 212.9,191.8 213.1,179.1 "/>
<path id="whiteFill" class="st5" d="M232.7,138.2L166.4,29.7c-1.9-3-3.9-5.4-7.4-5.8c-0.9-0.2-1.8-0.3-2.7-0.3c-4,0-7.7,2.1-9.8,5.5
	l-51.4,84l-0.1,0.3l-0.2-0.1c-4.6-2.6-11.4-5.4-14.9-6.2c-5.1-1.1-7.7,5.3-7.8,5.3l-0.1,0.2h-0.2c-3.3-0.1-6.3,2-7.4,5.2
	c-1.9,4.8,0.1,12.2,0.9,15.3c0.2,0.6,0.2,1,0.3,1.2c0,0.1,0.1,0.2,0.2,0.3l0.1,0.1v0.1c-0.3,1.1-0.7,2.1-1.1,3.1l-0.1,0.2h-0.2
	c-0.7-0.1-1.1-0.1-1.2-0.1l-4.2,4.4h-0.2c-2.7,0.1-5.3,0.6-7.8,1.5c-4.3,1.3-10.3,6.6-14.2,17c-4,10.6-4.5,46.1-4.5,46.5v9.6
	c0.1,0.1,10.1,7.7,21.1,8.4c0.3,0,0.6,0,0.9,0c10.9,0,25.5-12.4,26.1-13c-1.4-2-4.8-7.7-4.3-10.7c0.2-1.5,2.1-5.8,4.2-10.8
	c0.7-1.5,1.3-3.1,2-4.7l0.2-0.5l0.2,0.4c0.5,0.9,1,1.8,1.6,2.6l0.2,0.3l-1,0.1c0,0-0.1,0-0.1,0.1v1.2l0.1,0.1L86,191l0.1,0.1
	c1,1.4,1.9,2.7,2.7,3.7c4.4,6.1,12.5,7.9,12.5,7.9c0.6,0.1,1.1,0.1,1.7,0.1c2.2,0,6.2-0.4,8.1-3.5c0.9-1.4,1.6-2.8,2.2-4.3l0.1-0.2
	l4.7,0.6c0.5,0.1,1,0.1,1.6,0l13.5-2l0,0h0.1v-1.3l0.1-0.1c0.2-0.1,0.3-0.3,0.4-0.5l6-25.7c0.1-0.3,0-0.5-0.1-0.7s-0.4-0.4-0.6-0.4
	l-16.3-2.4l2.1-7.3h97.9c0.8,0,1.6-0.1,2.4-0.3c3.2-0.8,5.3-2.6,7.7-5.8C234,147.1,234.8,141.6,232.7,138.2z M105.5,159.7
	c-0.5,0-0.9,0.3-1,0.7l-4,17l-0.3-0.7c-2.4-5.3-5.3-11.4-6.8-14.1c-0.6-1.1-1.4-2.1-2.3-2.9l-0.1-0.1c-0.2-0.3-1.3-1.6-1.4-1.7
	c-1.1-1.1-2.2-2.1-3.4-3l-0.9-0.7l1.1,0.3c1.2,0.3,2.3,0.4,3.5,0.3h17.3l3,5.5L105.5,159.7z"/>
<path class="st6" d="M76.4,201.7c-0.5,3.1,3.2,9,4.3,10.7c0,0-16,13.7-27,12.9s-21.1-8.4-21.1-8.4v-9.6c0,0,0.5-35.8,4.5-46.5
	s10-15.7,14.2-17.1s8.5-2.5,15.6,0s17.5,9.1,22.7,14.2c0.1,0.1,1.3,1.5,1.4,1.7"/>
<path class="st6" d="M82.8,185.8c-2.8,6.8-6,13.9-6.3,15.9"/>
<path class="st6" d="M103.6,193.5c0.7-1,1.2-2,1.4-3.2c0.6-2.2-8.4-21.7-11.6-27.5c-0.7-1.4-1.7-2.6-3-3.5c-1.9-1.2-4.4-0.9-5.9,0.8
	c-2.7,2.9-4.6,6.5-5.5,10.4c-1.9,8.2,5.2,18.2,9.8,24.4s12.5,7.9,12.5,7.9s7.1,1,9.8-3.4s2.4-5.8,2.4-5.8s-0.4-4.6-3.7-5.7
	c-1.7-0.7-3.6-0.7-5.3-0.1c0.9,0.4,1.6,1.1,1.9,2.1c0.4,0.9,0.7,1.8,0.9,2.7"/>
<path class="st6" d="M80.8,148.2c0,0-5.6-5.1-9.1-7.6c-2.5-1.6-5.3-2.5-8.2-2.6l-4.2,4.4"/>
<path class="st6" d="M64.9,138c0.5-1.2,0.9-2.4,1.2-3.6"/>
<path class="st6" d="M86.4,128.6c0,0-3.4-0.6-4.4,2.7c-0.6,1.9-0.4,3.9,0.4,5.7"/>
<path class="st6" d="M80.8,148.2c0,0,2.8,2.4,4.5,1.6s5-5.9,8.5-12.4s0.8-15.6,0.8-15.6"/>
<path class="st6" d="M116.1,185.2c-0.3-0.6-0.8-1-1.3-1.1c-1-0.2-2-0.2-3,0c-0.3-1-1.3-1.6-2.3-1.4c-0.9,0.2-2,2-2.6,2.3
	c-0.8,0.7-1.4,1.4-2,2.3"/>
<path class="st6" d="M118.4,187.7v-0.6c0.1-0.8-0.3-1.5-1-1.8c-0.9-0.4-2.8,0.6-2.8,0.6"/>
<path class="st6" d="M117.7,191.7c0.1,0.1,0.3,0.2,0.4,0.2c0.6-0.4,1.1-1,1.4-1.6c0-0.7-0.1-1.5-0.4-2.2c-0.3-0.6-2.4,0-2.4,0"/>
<path class="st6" d="M113.5,194c0.9-0.2,1.8-0.6,2.5-1.2c1.1-0.9,2.5-2.1,2.5-2.1"/>
<path class="st6" d="M79.4,177.9c-0.1,0.4-7.6,11.9-9.8,22.2c-1.3,6.5-1,13.3,0.9,19.6"/>
<path class="st6" d="M119.4,190.3l13.2,1.9c0.5,0,0.9-0.3,1-0.7l6-25.7c0.1-0.5-0.2-1-0.7-1.1h-0.1l-16.3-2.4"/>
<path class="st6" d="M110.1,160.4l-4.7-0.7c-0.5,0-0.9,0.3-1,0.7l-4,17"/>
<path class="st6" d="M84.8,189.2l-1,0.1l-0.1,0.1c0,0,0,0,0.1,0.1l1.3,0.2"/>
<path class="st6" d="M113.4,193.7l4.5,0.6c0.5,0.1,1,0.1,1.6,0l13.6-2c0.1,0,0.1,0,0,0"/>
<line class="st6" x1="86" y1="191.1" x2="83.8" y2="190.8"/>
<path class="st6" d="M113.3,194.9l4.7,0.6c0.5,0.1,1,0.1,1.6,0l13.6-2"/>
<line class="st6" x1="133.1" y1="193.5" x2="133.1" y2="192.3"/>
<line class="st6" x1="83.7" y1="189.6" x2="83.7" y2="190.8"/>
<line class="st6" x1="77.9" y1="197.4" x2="93.9" y2="199.5"/>
<path class="st6" d="M63.5,142.8c0,0-11.9,10.4-15,25.7c-5.2,25.8-3.5,54.9-3.5,54.9"/>
<path class="st6" d="M85,154.1c1.6,0.6,3.2,0.9,4.9,0.8h17.3l11.3,21.1l6.2-21.1h97.9c6.3,0,11.4-5.1,11.4-11.4c0-2.1-0.6-4.2-1.7-6
	L166,29.1c-3.3-5.4-10.3-7.1-15.7-3.8c-1.5,0.9-2.8,2.2-3.8,3.8l-51.4,84"/>
<path class="st6" d="M80.6,148.2c0,1.6,0.2,2.9,0.2,2.9"/>
<line class="st6" x1="167.9" y1="209.5" x2="109" y2="201.6"/>
<line class="st6" x1="239.6" y1="195.3" x2="136" y2="181.6"/>
<line class="st6" x1="151" y1="211.6" x2="76.4" y2="201.7"/>
<g id="blackFill">
	<path class="st7" d="M100,117.1c-1-2.9-14.6-9.1-20-10.3s-8,5.5-8,5.5c-3.4-0.1-6.5,2.1-7.6,5.4c-2.2,5.8,0.9,15.1,1.2,16.7
		s6.5,2.4,8,2.3s2.4-2.2,4.4-5.4s5.8-3.8,7.7-2.7c1.2,0.7,1.2,3,1,4.8c-0.1,0.4,0.3,0.8,0.7,0.9c0.3,0,0.5-0.1,0.7-0.3
		c0.1-0.2,0.3-0.4,0.4-0.5c1.2-1.7,2.6-4.7,3.9-4.8s1.2-2.3,1.2-3.7s-0.4-3.4,2-2.9c2.1,0.3,4.1-1.1,4.4-3.2
		C100.2,118.2,100.2,117.6,100,117.1z"/>
	<path class="st7" d="M78.8,171.1c0,0-1.3,7.8-0.5,12.4s2.7,6.4,2.7,6.4l1.7-4.1c0,0-3.9-7.7-3.9-10.2S78.8,171.1,78.8,171.1z"/>
	<path class="st7" d="M123.5,191.1c-1.4-0.4-2.8-0.6-4.2-0.8c0,0-0.8,1.5-1.2,1.7s-0.7-0.4-0.7-0.4c-0.5,0.5-1.1,1-1.7,1.4
		c-0.7,0.4-1.1,0.6-1.1,0.6c1.4,0.1,2.9,0.1,4.3-0.2C120.6,192.8,122.1,192,123.5,191.1z"/>
	<path class="st7" d="M146.6,192.8c-3.8-0.8-12.8-1.9-12.8-1.9s0.1,0.9-0.1,1c-0.6,0.4-0.5,0.4-0.5,0.4c0.2,0.3,0.1,0.8-0.2,1.1
		c-0.1,0.1-0.3,0.1-0.4,0.1l-14,2.4c0,0,14.4-0.3,20.5-0.6S150.4,193.6,146.6,192.8z"/>
	<path class="st7" d="M114.5,193.8l-1.1,0.4c-0.3,1.3-0.8,2.6-1.5,3.8c-1.2,1.7-2.4,3.4-4.1,4.1s-8,0.5-8,0.5c1.6,0.6,3.3,1.1,5,1.2
		c1.8,0.1,3.5-0.7,4.7-2.1c1.7-0.5,3.1-1.5,4.1-3c0.7-1.1,1.3-2.4,1.8-3.6l-0.9-0.1V193.8z"/>
</g>
<g>
	<line class="st8" x1="143.4" y1="77.5" x2="142.7" y2="79.7"/>
	<path class="st8" d="M138,86.6l-0.4-1c-0.1-0.4-0.5-0.6-0.9-0.5l-2.8,0.7c-0.4,0.1-0.6,0.5-0.6,0.9l0.2,1c0.1,0.4,0.5,0.7,0.9,0.6
		L136,88c0.4-0.1,0.8,0.1,1.1,0.3l0,0"/>
	<path class="st8" d="M147.8,91.3v-0.9l-11.6-0.8c0,0-1.7,1.8,0,3.7s8.3-1,9.8-1.7C146.6,91.4,147.2,91.3,147.8,91.3L147.8,91.3z"/>
	<path class="st8" d="M156.4,107.2h19.4c0.7,0,1.3-0.4,1.5-1.1c0.4-1.3,0.9-3.7,0.9-7.8c0-6.5-2.5-7.7-4-10.5
		c-1.4-2.9-4.8-9.8-5.3-10.1c-0.5-0.3-6.6-1.2-13.1-1.2h-0.2c-6.5,0-12.7,0.9-13.1,1.2c-0.5,0.3-3.9,7.2-5.3,10.1
		c-1.4,2.9-4,4-4,10.5c0,4.1,0.5,6.5,0.9,7.8c0.2,0.7,0.8,1.1,1.5,1.1H156.4L156.4,107.2z"/>
	<path class="st8" d="M175.1,107.2v-1.7c0-0.9-0.7-1.7-1.7-1.7l0,0h-35.2c-0.9,0-1.7,0.7-1.7,1.6l0,0v1.7"/>
	<path class="st8" d="M178.3,99.4c0,0-1-1.1-21.6-1.1h-1.5c-20.6,0-21.9,1.1-21.9,1.1"/>
	<line class="st8" x1="169" y1="79.7" x2="168.3" y2="77.5"/>
	<path class="st8" d="M156,85.3c9.1,0,13,0.3,14.7,0.5c0.2,0,0.5-0.1,0.5-0.4c0-0.1,0-0.2,0-0.2l-2.1-5.5c-0.1-0.1-0.2-0.3-0.3-0.3
		c-4.2-0.5-8.5-0.8-12.7-0.7H156c-4.3,0-8.5,0.2-12.7,0.7c-0.2,0-0.3,0.1-0.3,0.3l-2.1,5.5c-0.1,0.2,0,0.5,0.2,0.6
		c0.1,0,0.2,0,0.2,0c1.6-0.2,5.5-0.5,14.6-0.5H156z"/>
	<path class="st8" d="M174.6,88.3L174.6,88.3c0.3-0.3,0.7-0.4,1.1-0.3l1.6,0.2c0.4,0.1,0.8-0.2,0.9-0.6l0.2-1
		c0.1-0.4-0.2-0.8-0.6-0.9L175,85c-0.4-0.1-0.8,0.1-0.9,0.5l-0.4,1"/>
	<path class="st8" d="M140.5,85.6l-0.6,0.9c-0.1,0.3-0.1,0.6,0,0.8l0.3,0.5l2.1,9.1c0,0,5.5-0.4,13-0.4h1c7.6,0,12.8,0.5,12.8,0.5
		l2.1-9.1l0.3-0.5c0.1-0.3,0.2-0.6,0-0.8l-0.6-0.9"/>
	<path class="st8" d="M176,90.4c0,0-2.5-4-20.1-4h-0.2c-17.6,0-20,4-20,4"/>
	<path class="st8" d="M171.7,107.2v4.1c0,0.7,0.5,1.2,1.2,1.2h3.9c0.7,0,1.2-0.5,1.2-1.2l0,0v-8c0,0-0.2-0.5-1.3-0.5H135
		c-1.2,0-1.3,0.5-1.3,0.5v8c0,0.7,0.5,1.2,1.2,1.2h3.9c0.7,0,1.2-0.5,1.2-1.2v-4.1"/>
	<path class="st8" d="M165.5,91.6c1.6,0.6,8.1,3.5,9.8,1.7c1.7-1.9,0-3.7,0-3.7l-11.6,0.8v0.9C164.3,91.3,165,91.4,165.5,91.6z"/>
	<line class="st8" x1="147.8" y1="91.3" x2="163.7" y2="91.3"/>
	<polygon class="st8" points="162,92.2 150.1,92.2 150.1,95 162.1,95 	"/>
	<polyline class="st8" points="133.3,97.9 126.9,101.5 129.4,101.5 133.3,99.1 	"/>
	<polygon class="st8" points="127.1,102.9 124.3,102.9 109.2,111.3 113.2,111.3 	"/>
	<line class="st8" x1="135.6" y1="90.4" x2="106.7" y2="96.6"/>
	<line class="st8" x1="176.1" y1="90.4" x2="205" y2="96.6"/>
	<line class="st8" x1="114.2" y1="134.6" x2="133.7" y2="111.7"/>
	<line class="st8" x1="129.8" y1="120.7" x2="135.9" y2="112.5"/>
	<line class="st8" x1="136.6" y1="117.1" x2="140.9" y2="110"/>
	<line class="st8" x1="197.5" y1="134.6" x2="177.9" y2="111.6"/>
	<line class="st8" x1="181.9" y1="120.7" x2="175.7" y2="112.5"/>
	<line class="st8" x1="175.1" y1="117.1" x2="170.7" y2="110"/>
	<path class="st8" d="M166.9,85c1,0,2.4,0.1,3.1,0.2c0.1,0,0.3-0.1,0.3-0.3v-0.1l-1.2-3.3"/>
	<line class="st8" x1="143" y1="80.2" x2="142.1" y2="82.6"/>
	<path class="st8" d="M136,91.6c0.1,0.4,0.3,0.9,0.7,1.1c0.7,0.6,1.3,0.5,2.4,0.4l1.3-0.2"/>
	<path class="st8" d="M171.1,93l1.3,0.2c1.1,0.2,1.8,0.2,2.4-0.4c0.4-0.3,0.6-0.7,0.7-1.1"/>
	<path class="st8" d="M135.7,86l-1.4,0.4c-0.2,0-0.3,0.2-0.2,0.4l0.2,0.8"/>
	<path class="st8" d="M177.4,87.5l0.2-0.8c0-0.2-0.1-0.3-0.2-0.4l-1.4-0.4"/>
	<line class="st8" x1="135.1" y1="112.5" x2="135.1" y2="110.8"/>
	<line class="st8" x1="138.4" y1="112.5" x2="138.4" y2="110.8"/>
	<line class="st8" x1="136.8" y1="112.5" x2="136.8" y2="110.8"/>
	<line class="st8" x1="173.2" y1="112.5" x2="173.2" y2="110.8"/>
	<line class="st8" x1="176.5" y1="112.5" x2="176.5" y2="110.8"/>
	<line class="st8" x1="174.8" y1="112.5" x2="174.8" y2="110.8"/>
	<g id="blackFill_1_">
		<path class="st7" d="M173.7,112.6L173.7,112.6z"/>
		<path class="st7" d="M171.8,111.9c-0.3-0.7-0.1-4.6-0.1-4.6h-31.8l-0.1,2.3c0,0,0.2,1.9-0.3,2.5c-0.4,0.4-2,0.5-2,0.5h36.1
			C173.3,112.6,172,112.5,171.8,111.9z"/>
		<path class="st7" d="M139.9,107.2c0,0-4.6-0.1-4.9-0.2c-0.9-0.4-1.4-3.4-1.4-3.4v2.8c0,0.9,0.8,1.7,1.7,1.7h4.5L139.9,107.2z"/>
		<path class="st7" d="M176.6,107c-0.3,0.1-4.9,0.2-4.9,0.2l0.1,0.9h4.5c0.9,0,1.7-0.8,1.7-1.7v-2.8
			C178,103.6,177.5,106.6,176.6,107z"/>
		<path class="st7" d="M155.9,79.3c4.4,0,8.8,0.2,13.2,0.7l-0.1-0.3c-0.1-0.1-0.2-0.3-0.3-0.3c-4.2-0.5-8.5-0.8-12.7-0.7h-0.1
			c-4.3,0-8.5,0.2-12.7,0.7c-0.2,0-0.3,0.1-0.3,0.3l-0.1,0.3C147.2,79.5,151.6,79.3,155.9,79.3L155.9,79.3z"/>
		<path class="st7" d="M138.2,104.6h35.2c0.9,0,1.7,0.7,1.7,1.6l0,0v-0.7c0-0.9-0.7-1.7-1.7-1.7l0,0h-35.2c-0.9,0-1.7,0.7-1.7,1.7
			l0,0v0.8C136.6,105.3,137.3,104.6,138.2,104.6L138.2,104.6z"/>
		<path class="st7" d="M148.1,91.3c-1,0-1.9,0.2-2.8,0.6h20.8c0,0-0.6-0.3-1.2-0.4c-0.8-0.2-1.6-0.2-2.5-0.2H148.1z"/>
	</g>
</g>
</svg>
